<?xml version="1.0" standalone="no"?>
<!DOCTYPE svg PUBLIC "-//W3C//DTD SVG 20010904//EN"
 "http://www.w3.org/TR/2001/REC-SVG-20010904/DTD/svg10.dtd">
<svg version="1.0" xmlns="http://www.w3.org/2000/svg"
 width="150.000000pt" height="150.000000pt" viewBox="0 0 150.000000 150.000000"
 preserveAspectRatio="xMidYMid meet">
<metadata>
Created by potrace 1.11, written by Peter Selinger 2001-2013
</metadata>
<g transform="translate(0.000000,150.000000) scale(0.100000,-0.100000)"
fill="#000000" stroke="none">
<path d="M995 1070 l-38 -39 -56 32 c-53 30 -62 32 -156 32 -84 0 -107 -4
-146 -23 -98 -48 -160 -137 -180 -259 -16 -93 -5 -170 36 -248 33 -64 33 -64
13 -82 -11 -10 -29 -31 -40 -46 l-20 -28 23 -25 24 -26 40 47 40 46 50 -28
c46 -26 58 -28 155 -28 90 0 111 3 148 23 66 35 119 88 149 150 26 53 28 66
28 177 0 115 -1 122 -31 176 l-30 56 38 44 c21 24 38 47 38 50 0 4 -11 14 -24
22 -22 15 -25 14 -61 -23z m-146 -90 c23 -11 41 -23 41 -26 0 -3 -77 -88 -170
-190 l-171 -185 -16 38 c-12 26 -17 67 -17 128 -1 75 3 98 23 138 54 111 196
156 310 97z m110 -129 c14 -43 14 -164 0 -216 -7 -26 -28 -57 -59 -87 -39 -38
-59 -48 -106 -58 -51 -11 -67 -10 -124 6 -36 11 -65 24 -65 30 0 16 329 375
336 366 3 -4 11 -22 18 -41z"/>
</g>
</svg>
